# xmcd CD database file
#
# Track frame offsets:
#	150
#	21974
#	48138
#	65294
#	98694
#	113379
#	139096
#	158385
#	176498
#	207125
#	227034
#	247804
#	269390
#	286272
#
# Disc length: 4085 seconds
#
# Revision: 0
# Processed by: cddbd v1.5.2PL0 Copyright (c) Steve Scherf et al.
# Submitted via: CDex 1.70beta2
#
DISCID=a90ff30e
DTITLE=Affinity - Live Instrumentals 1969
DYEAR=2003
DGENRE=Jazz
TTITLE0=Jive Samba
TTITLE1=Dis Here
TTITLE2=Comin' Home Baby
TTITLE3=Out Of The Storm
TTITLE4=Fever
TTITLE5=13 Death March
TTITLE6=All Blues
TTITLE7=81
TTITLE8=A Day In The Life
TTITLE9=All Blues
TTITLE10=81
TTITLE11=Mercy, Mercy, Mercy
TTITLE12=Jive Samba
TTITLE13=On Green Dolphin Street
EXTD=YEAR: 2003
EXTT0=
EXTT1=
EXTT2=
EXTT3=
EXTT4=
EXTT5=
EXTT6=
EXTT7=
EXTT8=
EXTT9=
EXTT10=
EXTT11=
EXTT12=
EXTT13=
PLAYORDER=
